<?xml version="1.0" standalone="no"?>
<!DOCTYPE svg PUBLIC "-//W3C//DTD SVG 20010904//EN"
 "http://www.w3.org/TR/2001/REC-SVG-20010904/DTD/svg10.dtd">
<svg version="1.0" xmlns="http://www.w3.org/2000/svg"
 width="247.000000pt" height="247.000000pt" viewBox="0 0 247.000000 247.000000"
 preserveAspectRatio="xMidYMid meet">
<metadata>
Created by potrace 1.11, written by Peter Selinger 2001-2013
</metadata>
<g transform="translate(0.000000,247.000000) scale(0.100000,-0.100000)"
fill="#000000" stroke="none">
<path d="M0 2455 c0 -17 16 -20 25 -5 15 24 33 5 72 -74 l41 -83 -69 5 c-55 4
-69 2 -69 -9 0 -11 10 -14 38 -11 30 3 43 -2 65 -24 26 -26 27 -29 27 -150 0
-67 -4 -125 -8 -128 -5 -3 -34 -6 -65 -8 -51 -3 -57 -5 -55 -23 2 -11 10 -19
18 -17 8 2 118 3 245 3 246 0 235 2 255 -53 10 -29 47 -45 76 -34 8 3 23 24
31 46 14 35 20 40 47 40 17 0 90 1 161 1 184 1 175 2 175 -22 0 -15 -4 -19
-16 -15 -12 5 -15 2 -10 -11 4 -9 1 -20 -6 -25 -10 -7 -9 -10 4 -18 13 -8 14
-14 5 -35 -7 -14 -21 -28 -32 -31 -11 -3 -230 -4 -488 -2 -434 3 -467 2 -467
-14 0 -14 11 -18 58 -20 l57 -3 2 -140 c3 -164 1 -178 -29 -193 l-23 -11 23 0
c21 -1 22 -5 22 -91 l0 -90 -41 -29 c-22 -17 -47 -27 -55 -24 -9 3 -14 -2 -14
-16 0 -25 26 -28 54 -6 26 20 58 19 94 -2 28 -16 32 -16 70 1 44 20 72 16 72
-9 0 -8 16 -63 35 -122 20 -61 32 -115 29 -128 -8 -32 -39 -37 -84 -14 -34 18
-70 18 -70 -1 0 -4 -14 -13 -32 -19 -25 -9 -35 -8 -48 4 -30 27 -44 19 -41
-25 0 -10 -1 -11 -5 -2 -3 6 -21 12 -40 12 -30 0 -34 -3 -34 -25 0 -14 4 -25
9 -25 18 0 141 -76 134 -83 -12 -12 -65 -8 -57 5 4 6 3 8 -3 5 -6 -4 -16 0
-23 8 -10 12 -16 13 -26 4 -21 -17 -17 -26 14 -37 l27 -10 -37 -16 c-29 -13
-38 -22 -38 -41 0 -14 2 -25 4 -25 2 0 38 16 80 36 42 19 109 44 149 54 195
51 210 57 304 126 12 9 27 13 33 9 22 -14 8 -48 -40 -92 -27 -25 -50 -50 -50
-54 0 -5 14 -9 31 -9 33 0 69 -15 69 -30 0 -15 -74 -30 -142 -29 -51 1 -76 -4
-129 -28 -36 -17 -68 -37 -72 -46 -3 -9 -23 -17 -54 -20 -26 -2 -78 -17 -115
-33 l-68 -28 0 -83 0 -83 85 0 c47 0 85 -3 85 -7 -1 -25 -20 -33 -75 -31 -74
4 -86 -17 -15 -25 68 -8 73 -13 49 -47 -28 -37 -56 -44 -90 -19 -35 25 -39 24
-39 -5 0 -13 10 -31 23 -40 l22 -15 -24 -21 c-33 -29 -6 -26 66 6 33 14 69 23
82 21 14 -3 31 -3 38 0 20 8 5 23 -23 23 -37 0 -36 43 2 78 23 20 35 22 137
22 105 0 114 -2 139 -25 22 -20 28 -22 38 -10 9 10 6 15 -12 20 -42 13 -49 24
-31 51 14 22 22 25 70 23 47 -2 56 -6 64 -26 6 -16 17 -23 34 -23 29 0 30 3 9
24 -27 27 -6 37 77 34 68 -1 79 -4 74 -17 -4 -9 -7 -20 -8 -26 -1 -5 -9 -15
-18 -22 -9 -7 -19 -29 -23 -50 -8 -48 -67 -93 -123 -93 -35 0 -36 -1 -17 -15
28 -21 44 -19 129 22 66 31 75 38 56 44 -26 10 -26 15 -1 64 23 45 35 55 73
55 15 0 27 5 27 10 0 16 73 12 98 -6 13 -9 21 -22 18 -30 -6 -16 35 -20 62 -5
28 15 162 21 189 8 l24 -11 -23 -13 c-13 -7 -33 -12 -45 -13 -12 0 -34 -7 -50
-15 -67 -34 -121 -55 -142 -55 -20 0 -23 -4 -18 -26 5 -28 8 -26 -108 -69 -35
-13 -44 -20 -31 -23 24 -5 136 27 157 45 24 21 73 0 64 -27 -8 -25 3 -26 21
-3 11 16 17 16 45 6 52 -20 54 1 4 32 -25 16 -45 31 -45 34 0 4 24 23 52 43
57 41 86 46 141 23 20 -8 49 -15 65 -15 15 0 33 -5 39 -11 6 -6 19 -9 29 -6
18 4 18 4 -1 11 -38 14 -105 51 -105 58 0 15 19 17 84 11 52 -5 69 -10 77 -26
8 -15 8 -22 -2 -28 -10 -6 -7 -9 11 -9 15 0 31 5 37 11 14 14 70 -10 102 -45
24 -26 51 -35 51 -17 0 5 8 12 18 14 11 3 9 5 -8 6 -14 1 -38 12 -55 25 -25
20 -27 26 -16 39 7 9 29 21 49 28 20 7 43 18 50 26 15 14 88 18 96 4 3 -4 23
-11 45 -15 32 -5 41 -11 50 -37 6 -18 11 -33 11 -35 0 -8 -73 -24 -128 -27
-95 -6 -87 -17 12 -17 100 0 137 -13 188 -66 35 -36 58 -44 58 -18 0 8 15 22
33 30 17 8 39 18 47 23 44 27 97 29 116 5 12 -15 24 -9 24 13 0 7 -7 13 -15
13 -24 0 -18 28 10 46 13 9 63 26 110 38 97 25 115 36 59 36 -62 0 -84 9 -84
35 0 34 21 46 74 40 l46 -4 0 44 0 44 -152 4 -153 3 153 2 152 2 0 28 c0 28 0
28 -97 42 -54 7 -136 26 -183 42 -47 17 -101 29 -122 29 -20 0 -92 17 -160 39
-67 22 -126 40 -130 40 -8 0 -120 50 -127 56 -2 2 2 10 9 19 22 27 83 16 263
-45 96 -33 182 -60 191 -60 30 0 19 53 -19 90 -19 19 -35 38 -35 42 0 22 30 1
100 -69 48 -47 86 -77 101 -78 13 -2 50 -10 82 -19 32 -9 74 -16 92 -16 l35 0
0 141 c0 136 -1 141 -20 136 -26 -7 -26 9 0 25 19 12 20 23 20 188 -1 124 -4
170 -11 158 -15 -26 -41 -22 -71 10 -20 20 -28 41 -32 82 -11 111 -15 337 -8
400 l7 65 58 -3 c54 -4 57 -3 57 20 l0 23 -155 -3 -155 -3 -30 33 -31 33 22
17 c21 18 20 51 -2 46 -6 -2 -14 3 -16 9 -6 17 27 29 37 13 5 -8 9 -9 14 -1 5
7 60 11 162 11 147 0 154 1 154 20 0 18 -7 20 -65 20 l-65 0 0 109 c0 60 -3
116 -6 125 -4 11 2 19 17 25 13 5 18 10 12 10 -25 2 -12 20 21 31 23 7 41 7
60 1 23 -9 26 -8 26 9 0 36 -127 24 -152 -14 -4 -6 -8 -75 -8 -153 0 -138 -1
-143 -21 -143 -20 0 -20 5 -19 128 2 179 4 170 -30 187 -34 18 -128 20 -165 3
l-25 -11 0 -154 c0 -146 -1 -153 -20 -153 -19 0 -20 7 -20 145 l0 145 -32 20
c-39 23 -130 27 -167 6 -23 -13 -24 -18 -22 -105 2 -77 0 -92 -14 -98 -28 -10
-36 18 -31 100 l4 78 -31 20 c-41 24 -142 26 -175 3 -21 -14 -22 -21 -22 -165
0 -142 -1 -149 -20 -149 -19 0 -20 7 -20 144 0 144 0 145 -26 165 -31 24 -125
29 -169 9 l-25 -11 0 -154 c0 -143 -1 -153 -19 -153 -28 0 -31 18 -31 166 l0
133 -31 17 c-21 11 -50 15 -90 12 -59 -3 -72 5 -47 30 7 7 23 12 38 12 14 0
84 30 155 65 l130 65 -156 0 -156 0 -71 -145 c-44 -88 -81 -149 -94 -156 -20
-11 -103 -7 -177 7 -24 5 -29 2 -40 -28 -7 -18 -17 -42 -22 -53 -4 -11 -20
-59 -34 -107 -14 -48 -29 -90 -34 -92 -16 -11 -30 15 -65 123 -20 62 -43 128
-50 146 -15 35 -16 35 -145 60 -90 17 -105 30 -172 152 l-52 93 -49 0 c-36 0
-48 -4 -48 -15z m1143 -187 c41 -22 46 -38 47 -158 0 -63 -4 -121 -9 -128 -5
-9 -31 -13 -81 -13 -40 0 -74 1 -75 3 -1 2 -5 59 -8 128 -3 87 -2 130 6 141
28 37 80 49 120 27z m289 -20 c15 -19 18 -45 18 -150 l0 -128 -85 0 -85 0 0
133 c0 72 4 137 8 144 24 38 115 38 144 1z m256 5 c28 -27 29 -31 26 -99 -2
-60 -7 -76 -28 -99 -15 -17 -26 -40 -26 -56 0 -16 -6 -30 -12 -30 -37 -4 -94
4 -100 14 -4 7 -8 64 -8 127 0 94 4 119 18 136 34 42 89 45 130 7z m274 -5
c15 -19 18 -44 18 -150 0 -128 0 -128 -23 -128 -13 0 -35 9 -48 21 -13 12 -41
35 -61 53 -35 30 -37 34 -38 101 -2 85 5 109 33 124 34 17 98 6 119 -21z m260
2 c18 -19 20 -35 19 -148 -1 -69 -3 -127 -4 -129 -4 -3 -102 -6 -140 -4 l-28
1 3 133 c3 125 4 132 23 130 11 -1 14 0 8 3 -38 17 13 46 66 39 19 -2 43 -14
53 -25z m-2047 -10 c11 -21 15 -61 15 -150 0 -113 -1 -120 -20 -120 -19 0 -20
7 -20 150 0 83 2 150 5 150 2 0 11 -13 20 -30z m815 -145 c0 -118 -1 -125 -20
-125 -18 0 -20 7 -20 89 0 79 18 161 35 161 3 0 5 -56 5 -125z m-665 88 c28
-3 53 -10 57 -17 4 -6 8 -53 8 -103 l0 -93 -85 0 -85 0 0 116 0 116 28 -7 c15
-4 50 -9 77 -12z m119 -92 c23 -101 22 -121 -9 -121 -25 0 -25 0 -25 95 0 52
4 95 9 95 5 0 17 -31 25 -69z m284 -43 c2 -60 0 -77 -12 -81 -26 -10 -34 23
-24 96 14 91 32 83 36 -15z m140 68 l52 -1 0 -72 0 -73 -85 0 -85 0 0 74 c0
78 7 90 45 79 11 -4 44 -7 73 -7z m944 -96 c46 -30 137 -122 180 -181 13 -17
57 -59 99 -94 71 -59 109 -111 109 -149 0 -44 -158 10 -252 87 -24 19 -61 46
-84 60 -66 41 -74 53 -74 111 0 58 -10 72 -57 85 -24 6 -29 13 -31 45 -6 72
36 85 110 36z m-712 -95 c11 4 139 6 283 6 209 0 261 -3 259 -13 -2 -7 -10
-17 -18 -21 -16 -9 -66 -59 -101 -100 -23 -27 -24 -27 -161 -27 -133 0 -140 1
-173 26 -61 46 -97 58 -126 45 -14 -6 -28 -10 -30 -7 -9 8 8 26 24 26 10 0 13
6 9 16 -3 9 -6 18 -6 20 0 3 -4 3 -9 -1 -16 -9 -24 15 -11 31 9 10 16 11 26 3
7 -6 22 -8 34 -4z m971 5 c23 0 25 -26 3 -38 -9 -5 -15 -13 -14 -18 1 -5 -3
-10 -9 -12 -17 -6 -26 29 -10 39 10 7 4 9 -20 7 -19 -2 -36 2 -38 9 -4 12 32
23 55 17 8 -2 22 -4 33 -4z m-321 -35 c23 -28 3 -80 -48 -125 -101 -91 -113
-103 -147 -144 -19 -24 -35 -50 -35 -59 0 -8 -16 -25 -35 -37 -28 -17 -39 -19
-50 -10 -8 6 -18 9 -24 6 -5 -4 -16 1 -24 9 -25 24 -59 32 -120 29 -47 -3 -70
-11 -113 -40 -30 -20 -54 -40 -54 -44 0 -5 -9 -11 -19 -15 -10 -3 -21 -13 -25
-23 -3 -9 -9 -24 -14 -32 -27 -47 -34 -68 -37 -116 -3 -60 20 -109 59 -123 13
-5 26 -17 29 -26 6 -13 11 -14 28 -5 16 9 24 8 39 -5 14 -13 22 -14 43 -4 19
9 30 9 40 1 8 -7 18 -7 27 -2 8 5 23 7 33 4 10 -3 23 -1 30 4 7 6 29 7 54 3
35 -7 45 -5 59 10 11 12 25 17 39 13 21 -5 24 -1 30 44 9 68 35 76 73 23 55
-77 91 -85 122 -27 15 30 28 33 37 10 4 -10 -2 -23 -15 -33 -15 -11 -20 -23
-16 -37 3 -12 -1 -26 -10 -33 -19 -16 -37 -6 -29 16 4 11 2 14 -8 11 -8 -3
-14 -18 -14 -34 0 -31 4 -29 -92 -33 -17 -1 -28 -13 -43 -44 -24 -51 -62 -76
-127 -83 -51 -6 -130 14 -125 31 2 6 26 9 57 7 30 -2 70 1 88 7 44 15 82 55
73 77 -6 15 -9 15 -30 -5 -20 -19 -28 -21 -46 -11 -16 9 -25 9 -36 -1 -12 -9
-20 -9 -39 1 -19 10 -28 10 -38 1 -11 -9 -20 -7 -40 9 -35 28 -132 43 -168 27
-9 -5 -24 0 -39 13 -13 11 -28 20 -35 20 -13 0 -68 56 -84 87 -22 44 -3 181
28 191 6 2 11 12 11 22 0 23 50 100 65 100 6 0 22 11 35 25 13 14 31 25 41 25
9 0 22 7 29 15 7 8 21 15 32 15 10 0 21 7 24 15 4 9 19 15 35 15 16 0 29 5 29
11 0 8 13 10 37 6 20 -4 42 -2 49 4 8 7 17 5 28 -7 13 -13 20 -14 31 -4 20 16
45 5 45 -20 0 -11 4 -20 8 -20 8 0 14 11 51 90 25 55 77 133 102 156 27 25 98
64 115 64 6 0 17 -7 24 -15z m320 -65 c0 -5 -7 -7 -15 -4 -8 4 -15 8 -15 10 0
2 7 4 15 4 8 0 15 -4 15 -10z m-947 -32 c29 -15 75 -64 93 -101 9 -16 14 -30
12 -31 -2 -1 -15 -7 -30 -14 -22 -9 -30 -8 -43 4 -18 18 -18 19 -6 61 15 50
-6 50 -29 0 -27 -58 -62 -90 -92 -85 -20 3 -23 8 -22 46 1 64 40 132 76 132
11 0 29 -5 41 -12z m657 -46 c0 -13 -12 -22 -22 -16 -10 6 -1 24 13 24 5 0 9
-4 9 -8z m-1593 -295 c-4 -154 -9 -282 -12 -285 -13 -13 -16 23 -22 282 -5
229 -4 279 7 286 8 5 18 6 24 3 6 -4 7 -112 3 -286z m541 69 c-3 -180 -5 -211
-18 -211 -13 0 -15 31 -18 205 -1 112 0 210 2 217 3 7 12 10 21 7 13 -6 15
-34 13 -218z m-354 -40 l-2 -250 -26 -23 c-29 -25 -90 -32 -102 -11 -4 6 -9
25 -10 42 -6 58 -11 486 -5 491 3 3 37 4 76 3 l70 -3 -1 -249z m77 19 c-2
-127 -5 -233 -8 -237 -2 -5 -8 -8 -12 -8 -11 0 -26 454 -16 470 4 6 14 10 23
8 15 -3 17 -25 13 -233z m201 173 c3 -155 -5 -353 -16 -363 -6 -7 -39 -15 -73
-19 -51 -6 -62 -4 -67 9 -8 22 -8 420 1 428 3 4 39 7 80 7 l73 0 2 -62z m266
-98 c1 -85 -1 -164 -6 -175 -5 -11 -13 -33 -18 -50 -8 -25 -16 -31 -49 -37
-68 -12 -72 -8 -78 90 -8 116 -9 311 -1 323 3 5 38 9 77 7 l72 -3 3 -155z m57
98 c2 -29 7 -72 10 -96 7 -44 -10 -106 -26 -96 -10 6 -12 237 -2 247 11 12 15
0 18 -55z m280 53 c3 -5 1 -12 -5 -16 -5 -3 -10 1 -10 9 0 18 6 21 15 7z m187
-15 c6 -29 -10 -34 -89 -28 -39 3 -52 8 -56 22 -7 27 -1 30 74 30 63 0 67 -1
71 -24z m796 -41 l3 -60 -22 40 c-12 22 -27 47 -35 56 -18 20 -7 31 26 27 23
-3 25 -7 28 -63z m71 -192 c-1 -242 -8 -330 -22 -293 -7 18 -15 538 -8 545 2
3 10 5 18 5 10 0 13 -49 12 -257z m-598 187 c5 0 9 9 9 19 0 18 2 19 27 6 36
-19 52 -51 53 -102 0 -34 -3 -41 -15 -37 -8 4 -15 11 -15 18 0 12 -46 37 -55
28 -3 -3 -5 -20 -5 -38 0 -27 -3 -32 -17 -27 -10 3 -27 14 -38 23 -11 10 -30
21 -42 25 -35 10 -28 28 30 81 48 45 52 47 55 27 2 -13 8 -23 13 -23z m-584
-55 c-4 -8 -18 -15 -32 -15 -22 0 -24 2 -13 13 14 15 41 26 47 21 2 -2 1 -10
-2 -19z m-73 -32 c-5 -5 -12 -12 -16 -18 -4 -6 -8 -2 -8 8 0 9 7 17 17 17 9 0
12 -3 7 -7z m1184 -180 l-1 -138 -8 90 c-6 81 -2 185 7 185 2 0 3 -62 2 -137z
m-603 107 c-4 -6 6 -27 20 -47 22 -28 25 -37 14 -44 -19 -12 -33 -11 -47 3 -7
7 -12 8 -12 4 0 -5 -9 3 -20 17 -20 25 -26 58 -13 70 11 12 65 8 58 -3z m-100
-121 c-3 -4 -12 -6 -20 -3 -8 4 -13 10 -10 15 3 4 12 6 20 3 8 -4 13 -10 10
-15z m215 -50 c0 -11 -4 -17 -10 -14 -5 3 -10 13 -10 21 0 8 5 14 10 14 6 0
10 -9 10 -21z m-101 -28 c7 -5 10 -14 7 -20 -8 -13 -46 3 -46 19 0 12 20 13
39 1z m103 -53 c-9 -9 -12 -7 -12 12 0 19 3 21 12 12 9 -9 9 -15 0 -24z m-862
-14 c0 -14 5 -34 10 -45 9 -16 7 -21 -16 -29 -31 -12 -53 -37 -54 -61 0 -37
-26 -51 -116 -65 -171 -28 -166 -28 -254 0 -45 15 -85 25 -88 21 -3 -3 7 -18
21 -33 17 -18 27 -39 27 -58 0 -82 -43 -26 -65 85 -5 23 -4 31 4 27 19 -12 12
9 -9 27 -13 11 -18 22 -13 31 14 26 83 66 151 88 84 27 148 35 290 37 l112 1
0 -26z m388 17 c10 -6 5 -11 -17 -20 -23 -10 -38 -10 -66 -1 -19 6 -33 16 -30
21 8 11 95 12 113 0z m1122 -144 c27 -21 44 -53 35 -67 -10 -16 -55 4 -84 36
-34 36 -38 50 -18 57 17 7 34 1 67 -26z m-1439 -5 c4 -4 9 -22 12 -39 l7 -33
-48 0 c-50 0 -95 21 -74 34 7 4 12 19 12 33 0 24 2 25 43 19 23 -4 45 -10 48
-14z m819 -48 c12 -29 20 -68 20 -104 0 -74 -20 -95 -84 -88 -26 3 -47 1 -49
-5 -1 -5 -17 5 -35 22 -29 29 -31 37 -26 74 10 61 17 70 78 101 31 16 59 33
62 37 9 15 12 11 34 -37z m535 6 c3 -5 2 -10 -4 -10 -5 0 -13 5 -16 10 -3 6
-2 10 4 10 5 0 13 -4 16 -10z m-1150 -10 c3 -5 19 -10 35 -10 40 0 45 -21 24
-100 -3 -10 -17 -15 -46 -15 -28 0 -43 5 -46 15 -3 8 -12 20 -21 27 -13 10
-14 15 -3 32 6 12 12 30 12 41 0 21 33 29 45 10z m-120 -10 c3 -5 2 -10 -4
-10 -5 0 -13 5 -16 10 -3 6 -2 10 4 10 5 0 13 -4 16 -10z m520 -62 c-7 -30
-55 -216 -63 -248 -29 -109 -158 -166 -249 -110 -38 23 -55 53 -76 140 -29
113 -29 113 28 133 54 20 51 20 146 11 79 -7 140 15 180 64 29 37 41 40 34 10z
m-690 -9 c9 -28 2 -33 -55 -35 -60 -2 -68 19 -17 41 45 20 65 18 72 -6z m180
11 c4 -6 -6 -10 -22 -10 -22 0 -25 2 -13 10 19 12 27 12 35 0z m-85 -10 c0 -5
-5 -10 -11 -10 -5 0 -7 5 -4 10 3 6 8 10 11 10 2 0 4 -4 4 -10z m128 -62 c-5
-32 -28 -35 -28 -4 0 17 5 26 16 26 10 0 14 -7 12 -22z m-441 -13 c3 -12 -43
-35 -70 -35 -25 0 -17 22 14 37 27 14 51 13 56 -2z m221 -12 c-2 -24 -6 -28
-31 -28 -21 0 -32 6 -38 20 -13 33 -11 35 31 35 38 0 40 -2 38 -27z m-428 -3
c22 -11 48 -20 60 -20 26 0 25 -6 -2 -33 -44 -45 -56 -50 -70 -35 -23 25 -38
57 -38 83 0 30 1 30 50 5z m310 -30 c0 -5 -11 -10 -24 -10 -14 0 -28 5 -31 10
-4 6 7 10 24 10 17 0 31 -4 31 -10z m880 -42 c37 -21 53 -48 30 -48 -5 0 -10
-7 -10 -15 0 -8 -9 -19 -20 -25 -14 -7 -20 -7 -20 0 0 5 4 10 8 10 23 0 -3 67
-29 75 -20 7 -26 25 -8 25 5 0 28 -10 49 -22z m-1381 -34 c17 -18 16 -19 -7
-31 -31 -17 -69 -17 -79 0 -4 7 -23 19 -40 26 -36 15 -46 37 -13 28 12 -3 32
1 46 8 28 14 59 4 93 -31z m1343 -76 c30 6 9 -35 -27 -52 -32 -15 -65 -21 -65
-11 0 2 12 30 27 61 l27 57 10 -29 c7 -20 17 -29 28 -26z m-1018 -14 c25 -10
19 -22 -9 -16 -14 2 -25 8 -25 13 0 10 12 11 34 3z m222 -36 c4 -6 -3 -19 -17
-30 -13 -10 -29 -22 -36 -28 -7 -5 -16 -10 -21 -10 -13 0 -11 -30 2 -31 23 -3
53 3 104 18 29 9 55 13 58 10 28 -28 -108 -102 -262 -143 -95 -25 -114 -25
-114 2 0 19 -20 18 -87 -6 -36 -12 -80 -20 -118 -19 -33 1 -51 4 -40 6 10 3
30 12 43 21 14 9 43 19 66 22 40 6 40 7 -25 14 -57 7 -71 5 -105 -13 -21 -12
-43 -21 -49 -21 -5 1 3 8 20 17 16 9 38 26 47 39 18 22 114 61 125 50 3 -3 -5
-14 -18 -25 l-24 -20 33 -1 c17 0 32 -5 32 -11 0 -6 6 -9 13 -6 6 2 12 10 12
17 0 15 0 15 160 91 149 70 186 81 201 57z m898 -63 c34 -14 70 -25 80 -25 22
0 33 -29 15 -41 -16 -10 -244 -12 -301 -3 -40 7 -54 32 -33 60 11 16 16 16 56
3 24 -8 52 -13 62 -11 17 4 17 4 1 16 -25 19 -8 39 28 32 16 -3 57 -17 92 -31z
m-724 -20 c0 -25 -29 -63 -66 -84 -19 -11 -39 -32 -46 -46 -6 -14 -17 -25 -25
-25 -23 0 -14 38 18 72 17 18 44 48 61 66 33 34 58 42 58 17z m218 -39 c19
-11 15 -56 -4 -56 -33 0 -149 22 -171 33 -24 11 -32 52 -12 59 14 5 171 -26
187 -36z m68 18 c-5 -14 -4 -15 9 -4 13 11 15 7 15 -29 0 -45 -23 -58 -34 -18
-9 35 -7 67 5 67 6 0 8 -7 5 -16z m144 -8 c0 -21 -21 -76 -29 -76 -9 0 -31 46
-31 65 0 12 9 16 53 24 4 0 7 -5 7 -13z m329 -56 c142 1 218 -3 225 -10 23
-23 -24 -30 -210 -30 -105 0 -219 -3 -253 -6 l-61 -7 0 31 c0 35 13 42 55 30
17 -4 126 -8 244 -8z m-628 -25 c16 -9 47 -15 67 -14 23 2 48 -4 62 -14 23
-16 17 -17 -144 -17 -168 0 -169 0 -151 20 12 14 31 20 59 20 23 0 48 5 56 10
19 12 16 13 51 -5z m249 -41 c0 -2 -17 -4 -37 -3 -29 0 -33 2 -18 8 18 7 55 4
55 -5z m-1047 -41 c-7 -2 -21 -2 -30 0 -10 3 -4 5 12 5 17 0 24 -2 18 -5z
m400 0 c-7 -2 -19 -2 -25 0 -7 3 -2 5 12 5 14 0 19 -2 13 -5z m165 0 c-16 -2
-40 -2 -55 0 -16 2 -3 4 27 4 30 0 43 -2 28 -4z m75 0 c-7 -2 -21 -2 -30 0
-10 3 -4 5 12 5 17 0 24 -2 18 -5z m265 0 c-38 -2 -98 -2 -135 0 -38 2 -7 3
67 3 74 0 105 -1 68 -3z m215 0 c-13 -2 -35 -2 -50 0 -16 2 -5 4 22 4 28 0 40
-2 28 -4z m210 0 c-7 -2 -21 -2 -30 0 -10 3 -4 5 12 5 17 0 24 -2 18 -5z m180
0 c-13 -2 -33 -2 -45 0 -13 2 -3 4 22 4 25 0 35 -2 23 -4z m80 0 c-7 -2 -19
-2 -25 0 -7 3 -2 5 12 5 14 0 19 -2 13 -5z m75 0 c-10 -2 -28 -2 -40 0 -13 2
-5 4 17 4 22 1 32 -1 23 -4z m119 0 c-20 -2 -52 -2 -70 0 -17 2 0 4 38 4 39 0
53 -2 32 -4z m-947 -101 c0 -30 -71 -43 -124 -22 -48 18 -28 30 49 30 41 0 75
-4 75 -8z m540 -9 l25 -10 -32 -7 c-18 -4 -33 -11 -33 -15 0 -8 -102 -61 -118
-61 -6 0 -25 12 -42 27 -26 21 -41 26 -77 24 -46 -2 -119 16 -108 27 28 29
322 40 385 15z m606 0 c3 -10 9 -25 14 -34 13 -26 -12 -51 -53 -55 -44 -4 -57
-10 -57 -29 0 -7 -11 -16 -24 -19 -14 -3 -27 -15 -31 -25 -4 -13 -19 -22 -45
-26 -21 -4 -44 -13 -50 -20 -15 -18 -62 0 -97 37 -26 27 -26 28 -8 48 25 27
44 31 98 21 44 -8 61 -1 36 14 -14 9 16 42 46 49 12 3 30 17 39 31 14 22 24
25 72 25 43 0 56 -4 60 -17z m-1899 -6 c-3 -19 -20 -27 -57 -27 -48 0 -80 10
-80 24 0 8 23 12 70 13 48 1 69 -2 67 -10z m1665 -13 c19 -12 -25 -44 -61 -44
-33 1 -91 36 -91 56 0 8 137 -3 152 -12z"/>
<path d="M1095 1880 c3 -5 8 -10 11 -10 2 0 4 5 4 10 0 6 -5 10 -11 10 -5 0
-7 -4 -4 -10z"/>
<path d="M427 2450 c8 -30 42 -46 131 -60 93 -15 100 -13 109 43 5 33 3 37
-16 37 -16 0 -21 -6 -21 -24 0 -33 -8 -36 -60 -26 -25 5 -62 11 -82 15 -24 4
-38 11 -38 20 0 8 -6 15 -14 15 -9 0 -12 -7 -9 -20z"/>
<path d="M1571 2466 c2 -2 49 -27 104 -56 55 -29 106 -57 113 -63 7 -5 30 -13
52 -17 37 -7 43 -4 112 52 l73 59 78 -6 c75 -5 117 4 117 25 0 6 -123 10 -327
10 -179 0 -324 -2 -322 -4z"/>
<path d="M2270 2462 c0 -18 57 -66 104 -87 100 -44 96 -45 96 29 l0 66 -100 0
c-55 0 -100 -3 -100 -8z"/>
<path d="M937 1896 c-3 -8 2 -20 10 -28 14 -11 16 -11 11 3 -4 9 -1 22 5 28 8
8 7 11 -5 11 -9 0 -18 -6 -21 -14z"/>
<path d="M8 1873 c7 -3 16 -2 19 1 4 3 -2 6 -13 5 -11 0 -14 -3 -6 -6z"/>
<path d="M2180 570 c0 -5 5 -10 11 -10 5 0 7 5 4 10 -3 6 -8 10 -11 10 -2 0
-4 -4 -4 -10z"/>
<path d="M896 151 c-17 -7 -38 -14 -48 -15 -10 -1 -18 -5 -18 -11 0 -13 137
-19 145 -6 3 6 -5 13 -19 17 -14 3 -26 11 -28 18 -2 9 -11 8 -32 -3z"/>
<path d="M2416 86 c-29 -25 -46 -48 -42 -55 11 -17 26 -13 26 7 0 9 16 28 35
41 19 13 35 30 35 37 0 18 2 20 -54 -30z"/>
<path d="M480 100 c0 -5 5 -10 11 -10 5 0 7 5 4 10 -3 6 -8 10 -11 10 -2 0 -4
-4 -4 -10z"/>
<path d="M173 53 c-4 -10 -15 -26 -26 -36 -16 -13 -17 -17 -5 -17 9 0 18 7 22
15 8 21 99 21 116 0 7 -8 22 -15 33 -15 19 0 19 1 2 20 -10 11 -34 22 -54 25
-20 4 -44 10 -53 16 -24 12 -28 12 -35 -8z"/>
<path d="M1647 56 c-8 -20 -247 -32 -276 -14 -18 11 -25 10 -48 -4 -15 -9 -29
-20 -30 -25 -5 -13 294 -7 344 6 23 6 55 9 70 6 27 -6 27 -6 8 9 -11 8 -25 20
-32 26 -17 14 -30 13 -36 -4z"/>
<path d="M2246 33 c-12 -12 -6 -33 9 -33 8 0 15 6 15 14 0 17 -14 28 -24 19z"/>
</g>
</svg>
