<?xml version="1.0" standalone="no"?>
<!DOCTYPE svg PUBLIC "-//W3C//DTD SVG 20010904//EN"
 "http://www.w3.org/TR/2001/REC-SVG-20010904/DTD/svg10.dtd">
<svg version="1.0" xmlns="http://www.w3.org/2000/svg"
 width="320.000000pt" height="320.000000pt" viewBox="0 0 320.000000 320.000000"
 preserveAspectRatio="xMidYMid meet">
<metadata>
Created by potrace 1.11, written by Peter Selinger 2001-2013
</metadata>
<g transform="translate(0.000000,320.000000) scale(0.100000,-0.100000)"
fill="#000000" stroke="none">
<path d="M0 2263 l0 -938 31 -22 c47 -32 117 -132 129 -183 21 -90 17 -132
-19 -191 -18 -30 -57 -74 -87 -99 -42 -34 -54 -50 -54 -72 l0 -28 28 17 c57
36 123 98 149 139 25 40 32 44 112 65 104 27 229 87 293 140 26 21 49 39 52
39 30 0 -59 -176 -122 -243 -31 -33 -149 -105 -227 -138 -48 -21 -55 -27 -55
-53 0 -70 -100 -200 -188 -245 l-42 -21 0 -205 0 -205 558 0 c308 0 593 -3
634 -6 l76 -7 10 69 c6 38 14 92 18 119 l7 50 13 -75 c8 -41 17 -93 21 -115
l8 -40 53 -3 c44 -3 52 0 52 15 0 36 -63 311 -92 403 -47 147 -95 233 -194
346 -291 330 -295 335 -360 469 -52 105 -68 189 -59 294 10 110 65 254 143
375 52 81 207 283 276 360 123 137 350 334 463 402 273 163 316 184 483 236
83 26 112 30 225 31 115 2 142 -1 234 -26 118 -32 410 -165 539 -245 46 -29
85 -52 88 -52 2 0 4 131 4 290 l0 290 -1600 0 -1600 0 0 -937z"/>
<path d="M1956 2618 c-2 -7 -9 -30 -16 -51 -9 -30 -9 -42 0 -50 19 -19 52 29
48 71 -3 35 -25 56 -32 30z"/>
<path d="M2181 2616 c-27 -32 23 -126 51 -98 8 8 7 22 -7 54 -25 57 -30 62
-44 44z"/>
<path d="M1620 2397 c-36 -18 -49 -71 -24 -98 30 -33 69 -49 123 -49 86 0 148
18 176 52 32 38 32 61 -1 87 -23 18 -40 21 -138 21 -69 0 -120 -5 -136 -13z"/>
<path d="M2255 2371 c-35 -21 -44 -55 -19 -82 9 -10 42 -28 73 -40 45 -17 71
-20 133 -17 90 5 118 22 118 73 0 53 -25 66 -142 76 -131 10 -128 11 -163 -10z"/>
<path d="M1505 2280 c-11 -17 33 -77 69 -94 56 -26 209 -16 191 13 -3 5 -31
12 -63 16 -106 11 -122 16 -156 46 -21 18 -37 26 -41 19z"/>
<path d="M2576 2203 c-24 -13 -52 -15 -143 -11 -82 4 -113 2 -110 -6 8 -24 55
-36 140 -36 90 0 145 17 176 54 12 14 10 16 -10 16 -13 -1 -37 -8 -53 -17z"/>
<path d="M1480 2190 c0 -12 12 -32 26 -45 22 -21 37 -25 85 -25 32 0 60 4 63
9 5 8 -58 31 -88 31 -9 0 -28 11 -42 25 -30 30 -44 32 -44 5z"/>
<path d="M2592 2140 c-18 -11 -48 -20 -67 -20 -24 0 -35 -5 -35 -15 0 -25 74
-19 120 10 40 25 52 45 28 45 -7 0 -28 -9 -46 -20z"/>
<path d="M1815 1625 c-105 -14 -222 -50 -353 -109 -98 -44 -197 -60 -322 -52
-155 10 -190 7 -237 -20 -49 -28 -59 -42 -44 -57 8 -8 20 -6 46 6 44 21 95 21
158 2 58 -17 190 -20 269 -6 46 8 118 33 193 67 6 2 42 -20 82 -50 87 -66 154
-92 298 -118 166 -29 289 -22 480 30 83 22 174 50 203 61 l53 21 72 -20 c106
-30 349 -70 423 -70 l64 0 0 45 0 45 -75 0 c-119 0 -341 41 -455 84 -388 145
-579 177 -855 141z m420 -88 c28 -8 104 -31 170 -52 l120 -38 -32 -13 c-18 -8
-94 -30 -170 -50 -132 -34 -143 -36 -263 -31 -128 5 -223 23 -310 57 -59 23
-130 67 -130 79 0 15 92 41 197 56 116 17 343 12 418 -8z"/>
<path d="M2010 684 c-14 -2 -59 -9 -100 -15 -41 -6 -81 -16 -87 -21 -22 -18
-14 -90 21 -192 l35 -99 -24 -106 c-12 -58 -26 -135 -29 -171 l-7 -65 275 0
c202 0 276 3 276 12 0 10 -18 102 -51 259 -11 48 -9 56 40 186 55 147 57 153
40 164 -49 30 -308 62 -389 48z"/>
</g>
</svg>
